<?xml version="1.0" encoding="UTF-8"?>
<svg xmlns="http://www.w3.org/2000/svg" viewBox="0 0 32 32">
  <defs>
    <style>
      .bg { fill: #0f1a23; }
      .node { fill: #f3efe9; }
      .stroke { stroke: #f3efe9; stroke-width: 1.4; stroke-linecap: square; }
      .dash { stroke-dasharray: 0.6 0.6; }
      .accent { fill: none; stroke: #a6e8f5; stroke-width: 1; }
    </style>
  </defs>
  <rect class="bg" width="32" height="32" rx="2"/>
  <g transform="translate(16 16)">
    <line class="stroke" x1="0" y1="-8.75" x2="0" y2="-4.75"/>
    <line class="stroke dash" x1="0" y1="-4.75" x2="0" y2="-13.75"/>
    <circle class="node" cx="0" cy="-14.75" r="1.25"/>
    <line class="stroke" x1="0" y1="8.75" x2="0" y2="4.75"/>
    <line class="stroke dash" x1="0" y1="4.75" x2="0" y2="13.75"/>
    <circle class="node" cx="0" cy="14.75" r="1.25"/>
    <line class="stroke" x1="-8.75" y1="0" x2="-4.75" y2="0"/>
    <line class="stroke dash" x1="-4.75" y1="0" x2="-13.75" y2="0"/>
    <circle class="node" cx="-14.75" cy="0" r="1.25"/>
    <line class="stroke" x1="8.75" y1="0" x2="4.75" y2="0"/>
    <line class="stroke dash" x1="4.75" y1="0" x2="13.75" y2="0"/>
    <circle class="node" cx="14.75" cy="0" r="1.25"/>
    <line class="stroke" x1="6.2" y1="6.2" x2="3.4" y2="3.4"/>
    <line class="stroke dash" x1="3.4" y1="3.4" x2="9.8" y2="9.8"/>
    <circle class="node" cx="10.8" cy="10.8" r="1.25"/>
    <line class="stroke" x1="-6.2" y1="-6.2" x2="-3.4" y2="-3.4"/>
    <line class="stroke dash" x1="-3.4" y1="-3.4" x2="-9.8" y2="-9.8"/>
    <circle class="node" cx="-10.8" cy="-10.8" r="1.25"/>
    <line class="stroke" x1="-6.2" y1="6.2" x2="-3.4" y2="3.4"/>
    <line class="stroke dash" x1="-3.4" y1="3.4" x2="-9.8" y2="9.8"/>
    <circle class="node" cx="-10.8" cy="10.8" r="1.25"/>
    <line class="stroke" x1="6.2" y1="-6.2" x2="3.4" y2="-3.4"/>
    <line class="stroke dash" x1="3.4" y1="-3.4" x2="9.8" y2="-9.8"/>
    <circle class="node" cx="10.8" cy="-10.8" r="1.25"/>
  </g>
  <circle class="node" cx="16" cy="16" r="2.9"/>
  <g transform="translate(16 16)">
    <circle class="accent" cx="11" cy="-11" r="1.5"/>
    <circle class="accent" cx="-14" cy="0" r="1.5"/>
  </g>
</svg>
