<?xml version="1.0" standalone="no"?>
<!DOCTYPE svg PUBLIC "-//W3C//DTD SVG 20010904//EN"
 "http://www.w3.org/TR/2001/REC-SVG-20010904/DTD/svg10.dtd">
<svg version="1.0" xmlns="http://www.w3.org/2000/svg"
 width="872.000000pt" height="872.000000pt" viewBox="0 0 872.000000 872.000000"
 preserveAspectRatio="xMidYMid meet">

<g transform="translate(0.000000,872.000000) scale(0.100000,-0.100000)"
fill="#000000" stroke="none">
<path d="M0 4360 l0 -4360 4360 0 4360 0 0 4360 0 4360 -4360 0 -4360 0 0
-4360z m7300 3665 l0 -75 70 0 70 0 0 -75 0 -75 70 0 70 0 0 -220 0 -220 -70
0 -70 0 0 -75 0 -75 -75 0 -75 0 0 -75 0 -75 -232 0 -233 0 3 75 3 75 -76 0
-75 0 0 70 c0 78 7 72 -87 71 l-53 0 0 224 0 223 43 3 c23 2 54 3 70 1 l27 -3
0 -220 0 -219 75 0 75 0 0 -75 0 -75 230 0 230 0 0 75 0 74 78 3 77 3 0 43
c-1 23 -2 120 -3 216 l-2 174 -75 7 -75 7 0 69 0 69 -230 0 -230 0 0 75 0 75
235 0 235 0 0 -75z m-474 -147 l0 -68 -73 0 -73 0 0 70 0 71 73 -3 72 -3 1
-67z m-2306 -157 c0 -11 9 -21 21 -24 12 -3 18 -10 14 -17 -4 -7 2 -14 14 -17
12 -3 21 -12 21 -19 0 -8 7 -14 15 -14 13 0 15 -26 15 -175 0 -168 -1 -175
-20 -175 -11 0 -20 -7 -20 -15 0 -8 -7 -15 -15 -15 -9 0 -15 -9 -15 -25 0 -24
-2 -25 -65 -25 l-65 0 0 -1025 0 -1025 -70 0 -70 0 0 1025 0 1025 -70 0 c-68
0 -70 1 -70 25 0 16 -6 25 -15 25 -8 0 -15 7 -15 15 0 8 -9 15 -20 15 -19 0
-20 7 -20 175 0 142 3 175 14 175 7 0 16 9 19 20 3 11 12 20 21 20 9 0 16 7
16 15 0 8 7 15 15 15 8 0 15 9 15 20 0 19 7 20 175 20 165 0 175 -1 175 -19z
m-2814 -157 c13 -14 24 -34 24 -45 0 -10 7 -19 15 -19 9 0 18 -7 21 -15 4 -8
12 -15 20 -15 7 0 17 -6 21 -13 4 -8 16 -16 26 -20 15 -6 17 -21 17 -132 0
-118 -1 -125 -20 -125 -11 0 -20 -7 -20 -15 0 -14 -12 -19 -32 -16 -5 0 -8 -6
-8 -14 0 -8 -7 -15 -15 -15 -8 0 -15 -7 -15 -16 0 -9 -8 -18 -19 -21 -13 -3
-17 -11 -14 -24 5 -18 -1 -19 -107 -19 -103 0 -112 2 -117 20 -3 11 -9 20 -13
20 -12 0 -50 37 -50 49 0 6 -8 11 -19 11 -10 0 -21 9 -24 20 -3 11 -12 20 -21
20 -14 0 -16 17 -16 125 0 121 1 126 23 134 12 5 20 12 17 17 -3 5 5 10 18 12
12 2 22 10 22 18 0 7 9 19 20 26 11 7 20 18 20 24 0 7 7 14 15 18 8 3 15 12
15 21 0 12 16 15 96 15 91 0 98 -2 120 -26z m200 -517 c3 -3 9 -35 11 -71 l6
-66 63 0 63 0 3 -67 3 -68 73 -3 72 -3 0 -69 0 -70 75 0 75 0 0 -75 0 -75 75
0 76 0 -3 -72 -3 -73 -72 -3 -73 -3 0 76 0 75 -75 0 -75 0 0 75 0 75 -70 0
-70 0 0 70 0 70 -70 0 -69 0 -3 68 -3 67 -67 3 -68 3 0 76 0 75 60 -4 c33 -2
62 -7 66 -11z m4774 -87 l0 -80 -70 0 -70 0 0 -75 0 -75 -74 0 -74 0 5 -75 6
-75 -77 0 -76 0 0 -80 0 -80 -39 0 c-21 0 -53 3 -70 6 l-31 7 0 73 0 74 70 0
69 0 3 73 3 72 68 3 67 3 0 74 0 75 75 0 75 0 0 80 0 80 70 0 70 0 0 -80z
m-580 -600 l0 -70 -60 0 -60 0 -1 -47 c-1 -27 -2 -85 -1 -130 l0 -83 -73 0
c-84 0 -85 -1 -85 -91 l0 -59 -65 0 c-73 0 -68 7 -65 -92 l1 -58 -70 0 -71 0
0 -75 0 -75 -75 0 -75 0 0 -70 0 -70 -70 0 -70 0 0 70 0 69 73 3 72 3 2 55 c1
30 2 63 2 73 1 14 11 17 71 17 l70 0 0 75 0 75 70 0 70 0 0 75 0 75 70 0 70 0
0 124 c0 69 4 127 10 131 5 3 39 8 75 12 l65 6 0 63 0 64 60 0 60 0 0 -70z
m-3460 -100 l0 -70 75 0 75 0 0 -80 0 -80 70 0 70 0 0 -75 0 -75 65 2 c36 1
67 -1 71 -4 3 -4 7 -37 7 -75 l2 -68 -75 -3 -75 -3 3 76 4 75 -71 0 -70 0 -3
73 -3 72 -72 3 -73 3 0 74 0 75 -75 0 -75 0 0 75 0 75 75 0 75 0 0 -70z m572
-557 c3 -16 5 -48 4 -73 l-1 -45 -65 -1 -65 0 -6 65 c-3 36 -4 69 -2 74 2 4
33 7 67 7 61 0 64 -1 68 -27z m152 -160 c3 -21 6 -53 6 -70 l0 -33 65 0 66 0
-3 -72 -3 -73 -60 0 -60 0 -3 73 -3 72 -74 0 -75 0 0 70 0 70 69 0 68 0 7 -37z
m1886 -168 c0 -36 -1 -68 -2 -72 -2 -4 -28 -8 -59 -9 -65 -3 -69 1 -69 94 l0
52 65 0 65 0 0 -65z m-1612 -160 l3 -75 -61 0 c-70 0 -71 1 -73 90 l-2 60 65
0 65 0 3 -75z m1482 0 l0 -75 -58 0 c-32 0 -63 5 -70 12 -7 7 -12 39 -12 75
l0 63 70 0 70 0 0 -75z m-454 -209 c12 -5 15 -18 12 -66 l-4 -60 73 0 73 0 0
-80 0 -80 75 0 75 0 0 -330 0 -330 -75 0 -74 0 -3 -72 -3 -73 -70 0 -69 0 -1
-75 0 -75 -335 0 -335 0 -5 75 -5 75 -67 -2 -68 -1 0 74 0 74 -70 0 -70 0 0
330 0 330 70 0 70 0 0 80 0 80 78 0 77 0 -1 63 c-1 34 0 64 1 67 4 7 632 3
651 -4z m-3436 -145 c0 -10 9 -21 20 -24 11 -3 20 -12 20 -21 0 -9 7 -16 15
-16 8 0 15 -7 15 -15 0 -8 7 -15 15 -15 9 0 18 -7 21 -15 4 -8 12 -15 20 -15
8 0 14 -7 14 -16 0 -18 23 -44 39 -44 6 0 11 -9 11 -20 0 -11 7 -20 15 -20 8
0 15 -7 15 -15 0 -8 7 -15 15 -15 18 0 17 4 19 -239 1 -168 -1 -185 -16 -189
-10 -2 -18 -11 -18 -18 0 -8 -7 -14 -15 -14 -8 0 -15 -7 -15 -15 0 -8 -8 -15
-19 -15 -10 0 -21 -9 -24 -20 -3 -11 -12 -20 -21 -20 -9 0 -16 -7 -16 -15 0
-8 -7 -15 -15 -15 -8 0 -15 -9 -15 -20 0 -11 -7 -20 -15 -20 -8 0 -15 -7 -15
-15 0 -8 -8 -15 -19 -15 -14 0 -21 -10 -25 -35 l-7 -35 -194 0 c-167 0 -195 2
-195 15 0 8 -7 15 -15 15 -8 0 -15 9 -15 20 0 11 -7 20 -15 20 -8 0 -15 7 -15
15 0 8 -4 15 -10 15 -5 0 -10 7 -10 15 0 8 -7 15 -16 15 -9 0 -18 9 -21 20 -3
11 -12 20 -19 20 -8 0 -14 6 -14 14 0 7 -10 16 -21 19 -15 4 -20 11 -16 21 5
11 0 16 -13 16 -11 0 -20 7 -20 15 0 8 -6 15 -14 15 -8 0 -16 6 -19 13 -2 6
-5 101 -6 210 -1 191 0 197 19 197 13 0 20 7 20 20 0 13 7 20 20 20 11 0 20 5
20 10 0 13 37 50 50 50 6 0 10 9 10 20 0 13 7 20 20 20 11 0 20 7 20 15 0 8 7
15 15 15 8 0 15 7 15 15 0 8 5 15 10 15 6 0 10 7 10 15 0 9 7 18 15 21 8 4 15
15 15 25 0 18 10 19 195 19 184 0 195 -1 195 -19z m6320 -166 c0 -8 7 -15 15
-15 8 0 15 -9 15 -20 0 -11 7 -20 15 -20 8 0 15 -7 15 -15 0 -8 7 -15 15 -15
8 0 15 -7 15 -15 0 -8 3 -14 8 -12 4 1 8 -2 10 -8 2 -5 12 -13 23 -17 19 -7
20 -17 18 -157 -1 -140 -2 -149 -21 -154 -12 -3 -17 -10 -13 -17 4 -7 -2 -14
-14 -17 -12 -3 -21 -12 -21 -19 0 -8 -7 -14 -15 -14 -8 0 -15 -7 -15 -15 0 -8
-9 -15 -20 -15 -11 0 -20 -7 -20 -15 0 -13 -22 -15 -135 -15 -113 0 -135 2
-135 15 0 8 -6 15 -14 15 -17 0 -86 63 -86 78 0 6 -7 15 -15 20 -13 7 -15 34
-13 173 3 150 5 164 21 161 10 -2 17 3 17 13 0 8 7 15 15 15 8 0 15 7 15 15 0
9 7 18 15 21 8 4 15 12 15 20 0 8 7 14 15 14 8 0 15 7 15 15 0 13 21 15 130
15 109 0 130 -2 130 -15z m-3960 -305 l0 -70 -965 0 -965 0 0 70 0 70 965 0
965 0 0 -70z m3468 3 l-3 -68 -982 -3 -983 -2 0 70 0 70 985 0 986 0 -3 -67z
m-1938 -714 l0 -69 70 0 70 0 0 -75 0 -75 70 0 69 0 3 -72 3 -73 73 -3 72 -3
0 -69 0 -69 68 -3 67 -3 3 -72 3 -73 69 0 70 0 0 -75 0 -76 -71 3 -72 3 -1 70
-1 70 -67 3 -68 3 0 74 0 75 -75 0 -75 0 0 70 0 70 -70 0 -70 0 0 75 0 75 -70
0 -70 0 0 75 0 75 -70 0 -70 0 0 70 0 69 63 3 c34 2 65 2 70 0 4 -2 7 -34 7
-73z m-1342 -11 l-3 -73 -65 0 -65 0 -3 59 c-4 84 -3 86 73 86 l66 0 -3 -72z
m642 -1153 l0 -1105 -70 0 -70 0 0 1105 0 1105 70 0 70 0 0 -1105z m-780 1010
l0 -75 -65 0 -65 0 0 -70 0 -70 -70 0 -70 0 0 -73 0 -73 -67 1 -68 0 -3 -67
c-3 -66 -4 -68 -30 -70 -15 -1 -38 -3 -52 -4 -14 -1 -35 -3 -47 -3 -22 -1 -23
-5 -23 -76 l0 -75 -47 0 c-90 0 -93 3 -93 81 l0 69 70 0 69 0 3 73 3 72 65 0
c74 0 77 3 79 93 l1 52 70 0 70 0 0 70 c0 78 -5 73 83 70 l47 -1 0 75 0 76 70
0 70 0 0 -75z m-702 -784 l3 -131 -71 0 -70 0 0 -75 0 -75 -70 0 -70 0 0 -70
0 -70 -70 0 -70 0 0 -70 0 -70 -70 0 -70 0 0 -70 0 -70 -70 0 -70 0 0 70 0 70
70 0 69 0 3 68 3 67 68 3 67 3 0 69 0 70 70 0 70 0 0 75 0 75 70 0 70 0 0 133
0 132 67 -1 68 -1 3 -132z m3052 49 l0 -80 -75 0 -75 0 0 80 0 80 75 0 75 0 0
-80z m138 -147 l3 -73 74 0 75 0 0 -70 0 -70 75 0 74 0 3 -72 3 -72 57 1 c65
2 72 -4 74 -62 4 -94 -3 -85 69 -85 l65 0 0 -75 0 -75 64 0 64 0 1 -65 1 -65
-65 0 -64 0 -3 68 -3 67 -55 1 c-81 1 -79 0 -78 47 2 103 6 97 -67 97 l-65 0
0 75 0 75 -75 0 -75 0 0 70 0 70 -75 0 -75 0 0 70 0 70 -70 0 -70 0 0 69 c0
79 1 80 85 78 l50 -2 3 -72z m-4248 -757 c0 -7 9 -16 21 -19 12 -3 18 -10 14
-17 -4 -7 2 -14 14 -17 12 -3 21 -11 21 -18 0 -7 9 -15 20 -18 12 -3 20 -14
20 -26 0 -12 7 -24 15 -27 12 -5 15 -29 15 -130 0 -104 -2 -124 -15 -124 -8 0
-15 -7 -15 -15 0 -8 -7 -15 -15 -15 -8 0 -15 -7 -15 -15 0 -8 -9 -15 -20 -15
-11 0 -20 -7 -20 -15 0 -8 -9 -15 -20 -15 -13 0 -20 -7 -20 -20 0 -20 -5 -21
-112 -18 -85 2 -112 6 -110 16 1 7 -5 15 -13 18 -8 4 -15 12 -15 20 0 8 -9 14
-20 14 -11 0 -20 7 -20 15 0 8 -9 15 -20 15 -11 0 -20 7 -20 15 0 8 -7 15 -15
15 -13 0 -15 21 -15 130 0 108 2 130 15 130 8 0 17 11 21 25 3 14 12 25 20 25
8 0 14 7 14 15 0 8 7 15 16 15 9 0 18 9 21 20 3 11 14 20 24 20 11 0 19 7 19
15 0 12 18 15 105 15 83 0 105 -3 105 -14z m5298 -70 c2 -9 12 -16 23 -16 10
0 19 -7 19 -15 0 -8 7 -15 15 -15 8 0 15 -7 15 -15 0 -8 6 -15 13 -15 7 0 23
-14 36 -31 20 -27 22 -42 22 -132 0 -56 0 -108 -1 -114 0 -7 -7 -13 -15 -13
-8 0 -15 -5 -15 -11 0 -6 -11 -20 -25 -31 -14 -11 -23 -24 -20 -29 4 -5 -1 -9
-9 -9 -9 0 -16 -7 -16 -15 0 -8 -9 -15 -20 -15 -11 0 -20 -7 -20 -15 0 -23
-202 -22 -229 2 -11 9 -18 20 -15 25 3 4 -2 8 -10 8 -9 0 -16 7 -16 15 0 8 -7
15 -15 15 -8 0 -15 7 -15 15 0 8 -6 15 -14 15 -8 0 -18 9 -21 20 -3 11 -13 20
-22 20 -13 0 -15 9 -9 61 3 34 6 88 6 120 0 46 3 59 15 59 8 0 15 9 15 20 0
13 7 20 20 20 11 0 20 7 20 15 0 8 7 15 15 15 8 0 15 7 15 15 0 8 7 15 15 15
8 0 19 8 24 18 8 15 23 17 113 16 86 -1 104 -4 106 -18z m-2698 -561 c0 -8 7
-15 15 -15 8 0 15 -9 15 -20 0 -11 7 -20 15 -20 9 0 18 -7 21 -15 4 -8 12 -15
20 -15 8 0 14 -9 14 -20 0 -11 7 -20 15 -20 13 0 15 -22 15 -135 0 -113 -2
-135 -15 -135 -8 0 -15 -7 -15 -15 0 -8 -7 -15 -15 -15 -8 0 -15 -7 -15 -16 0
-9 -9 -18 -20 -21 -11 -3 -20 -9 -20 -14 0 -5 -6 -9 -14 -9 -8 0 -16 -7 -20
-15 -4 -12 -27 -15 -114 -15 -108 0 -162 12 -162 38 0 6 -7 12 -15 12 -8 0
-15 7 -15 15 0 8 -7 15 -16 15 -9 0 -18 9 -21 20 -3 11 -11 20 -19 20 -15 0
-20 56 -16 183 3 67 7 87 18 87 8 0 14 5 14 11 0 14 47 59 61 59 5 0 9 9 9 20
0 13 7 20 20 20 11 0 19 3 19 8 -1 4 -1 10 0 15 0 4 55 7 121 7 100 0 120 -2
120 -15z"/>
<path d="M860 4720 c0 -11 -7 -20 -15 -20 -8 0 -15 -7 -15 -15 0 -8 -9 -15
-20 -15 -13 0 -20 -7 -20 -20 0 -13 -7 -20 -20 -20 -11 0 -20 -7 -20 -15 0 -8
-7 -15 -15 -15 -13 0 -15 -28 -15 -190 0 -162 2 -190 15 -190 8 0 15 -7 15
-15 0 -8 7 -15 15 -15 8 0 15 -9 15 -20 0 -11 7 -20 15 -20 8 0 15 -7 15 -15
0 -8 7 -15 15 -15 9 0 15 -9 15 -21 0 -15 4 -19 16 -15 11 4 18 -1 21 -14 5
-19 14 -20 163 -20 149 0 158 1 163 20 3 11 13 20 22 20 9 0 13 5 10 10 -3 6
1 13 9 16 9 3 16 12 16 20 0 8 7 14 15 14 8 0 15 6 15 14 0 8 7 16 15 20 8 3
15 12 15 21 0 8 7 15 15 15 13 0 15 28 15 190 0 162 -2 190 -15 190 -8 0 -15
7 -15 15 0 8 -7 15 -15 15 -8 0 -15 9 -15 20 0 15 -7 20 -26 20 -20 0 -25 4
-20 16 4 11 -1 18 -14 21 -11 3 -20 12 -20 19 0 11 -33 14 -175 14 -168 0
-175 -1 -175 -20z"/>
</g>
</svg>
